<mxfile host="app.diagrams.net" agent="Mozilla/5.0 (X11; Ubuntu; Linux x86_64; rv:132.0) Gecko/20100101 Firefox/132.0" version="25.0.0">
  <diagram name="Page-1" id="-c3lFSAIwQcH0rRA0kI-">
    <mxGraphModel dx="2537" dy="2067" grid="1" gridSize="10" guides="1" tooltips="1" connect="1" arrows="1" fold="1" page="1" pageScale="1" pageWidth="850" pageHeight="1100" math="0" shadow="0">
      <root>
        <mxCell id="0" />
        <mxCell id="1" parent="0" />
        <mxCell id="aBqmL__dgE8RmT_emZI3-43" style="edgeStyle=orthogonalEdgeStyle;rounded=0;orthogonalLoop=1;jettySize=auto;html=1;" edge="1" parent="1" source="aBqmL__dgE8RmT_emZI3-1">
          <mxGeometry relative="1" as="geometry">
            <mxPoint x="500" y="400" as="targetPoint" />
          </mxGeometry>
        </mxCell>
        <mxCell id="aBqmL__dgE8RmT_emZI3-1" value="direttore" style="whiteSpace=wrap;html=1;aspect=fixed;" vertex="1" parent="1">
          <mxGeometry x="190" y="360" width="80" height="80" as="geometry" />
        </mxCell>
        <mxCell id="aBqmL__dgE8RmT_emZI3-2" value="sportello" style="whiteSpace=wrap;html=1;aspect=fixed;" vertex="1" parent="1">
          <mxGeometry x="680" y="200" width="80" height="80" as="geometry" />
        </mxCell>
        <mxCell id="aBqmL__dgE8RmT_emZI3-22" style="edgeStyle=orthogonalEdgeStyle;rounded=0;orthogonalLoop=1;jettySize=auto;html=1;" edge="1" parent="1" source="aBqmL__dgE8RmT_emZI3-3">
          <mxGeometry relative="1" as="geometry">
            <mxPoint x="560" y="80" as="targetPoint" />
          </mxGeometry>
        </mxCell>
        <mxCell id="aBqmL__dgE8RmT_emZI3-3" value="erogatore&lt;br&gt;ticket" style="whiteSpace=wrap;html=1;aspect=fixed;" vertex="1" parent="1">
          <mxGeometry x="690" y="40" width="80" height="80" as="geometry" />
        </mxCell>
        <mxCell id="aBqmL__dgE8RmT_emZI3-4" value="operatore" style="whiteSpace=wrap;html=1;aspect=fixed;" vertex="1" parent="1">
          <mxGeometry x="680" y="350" width="80" height="80" as="geometry" />
        </mxCell>
        <mxCell id="aBqmL__dgE8RmT_emZI3-5" value="utente" style="whiteSpace=wrap;html=1;aspect=fixed;" vertex="1" parent="1">
          <mxGeometry x="680" y="495" width="80" height="80" as="geometry" />
        </mxCell>
        <mxCell id="aBqmL__dgE8RmT_emZI3-17" style="edgeStyle=orthogonalEdgeStyle;rounded=0;orthogonalLoop=1;jettySize=auto;html=1;exitX=1;exitY=0.5;exitDx=0;exitDy=0;" edge="1" parent="1" source="aBqmL__dgE8RmT_emZI3-6">
          <mxGeometry relative="1" as="geometry">
            <mxPoint x="180" y="400" as="targetPoint" />
          </mxGeometry>
        </mxCell>
        <mxCell id="aBqmL__dgE8RmT_emZI3-6" value="&lt;div align=&quot;left&quot;&gt;1- Crea sim&lt;br&gt;&lt;/div&gt;&lt;div align=&quot;left&quot;&gt;2-Stats&lt;/div&gt;&lt;div align=&quot;left&quot;&gt;3- Genera px&lt;br&gt;&lt;/div&gt;" style="rounded=1;whiteSpace=wrap;html=1;" vertex="1" parent="1">
          <mxGeometry x="-110" y="370" width="210" height="60" as="geometry" />
        </mxCell>
        <mxCell id="aBqmL__dgE8RmT_emZI3-10" value="sportello" style="whiteSpace=wrap;html=1;aspect=fixed;" vertex="1" parent="1">
          <mxGeometry x="690" y="210" width="80" height="80" as="geometry" />
        </mxCell>
        <mxCell id="aBqmL__dgE8RmT_emZI3-11" value="sportello" style="whiteSpace=wrap;html=1;aspect=fixed;" vertex="1" parent="1">
          <mxGeometry x="700" y="220" width="80" height="80" as="geometry" />
        </mxCell>
        <mxCell id="aBqmL__dgE8RmT_emZI3-39" style="edgeStyle=orthogonalEdgeStyle;rounded=0;orthogonalLoop=1;jettySize=auto;html=1;" edge="1" parent="1" source="aBqmL__dgE8RmT_emZI3-12">
          <mxGeometry relative="1" as="geometry">
            <mxPoint x="1240" y="360" as="targetPoint" />
          </mxGeometry>
        </mxCell>
        <mxCell id="aBqmL__dgE8RmT_emZI3-12" value="sportello" style="whiteSpace=wrap;html=1;aspect=fixed;" vertex="1" parent="1">
          <mxGeometry x="710" y="230" width="80" height="80" as="geometry" />
        </mxCell>
        <mxCell id="aBqmL__dgE8RmT_emZI3-13" value="operatore" style="whiteSpace=wrap;html=1;aspect=fixed;" vertex="1" parent="1">
          <mxGeometry x="690" y="360" width="80" height="80" as="geometry" />
        </mxCell>
        <mxCell id="aBqmL__dgE8RmT_emZI3-15" value="operatore" style="whiteSpace=wrap;html=1;aspect=fixed;" vertex="1" parent="1">
          <mxGeometry x="700" y="370" width="80" height="80" as="geometry" />
        </mxCell>
        <mxCell id="aBqmL__dgE8RmT_emZI3-38" style="edgeStyle=orthogonalEdgeStyle;rounded=0;orthogonalLoop=1;jettySize=auto;html=1;" edge="1" parent="1" source="aBqmL__dgE8RmT_emZI3-16">
          <mxGeometry relative="1" as="geometry">
            <mxPoint x="1120" y="520" as="targetPoint" />
          </mxGeometry>
        </mxCell>
        <mxCell id="aBqmL__dgE8RmT_emZI3-16" value="operatore" style="whiteSpace=wrap;html=1;aspect=fixed;" vertex="1" parent="1">
          <mxGeometry x="710" y="380" width="80" height="80" as="geometry" />
        </mxCell>
        <mxCell id="aBqmL__dgE8RmT_emZI3-19" value="utente" style="whiteSpace=wrap;html=1;aspect=fixed;" vertex="1" parent="1">
          <mxGeometry x="690" y="505" width="80" height="80" as="geometry" />
        </mxCell>
        <mxCell id="aBqmL__dgE8RmT_emZI3-20" value="utente" style="whiteSpace=wrap;html=1;aspect=fixed;" vertex="1" parent="1">
          <mxGeometry x="700" y="515" width="80" height="80" as="geometry" />
        </mxCell>
        <mxCell id="aBqmL__dgE8RmT_emZI3-35" style="edgeStyle=orthogonalEdgeStyle;rounded=0;orthogonalLoop=1;jettySize=auto;html=1;exitX=1;exitY=0.5;exitDx=0;exitDy=0;" edge="1" parent="1">
          <mxGeometry relative="1" as="geometry">
            <mxPoint x="1000" y="635" as="targetPoint" />
            <mxPoint x="790" y="560" as="sourcePoint" />
          </mxGeometry>
        </mxCell>
        <mxCell id="aBqmL__dgE8RmT_emZI3-21" value="utente" style="whiteSpace=wrap;html=1;aspect=fixed;" vertex="1" parent="1">
          <mxGeometry x="710" y="525" width="80" height="80" as="geometry" />
        </mxCell>
        <mxCell id="aBqmL__dgE8RmT_emZI3-23" value="&lt;div align=&quot;left&quot;&gt;&lt;br&gt;&lt;/div&gt;&lt;div align=&quot;left&quot;&gt;&lt;br&gt;&lt;/div&gt;&lt;div align=&quot;center&quot;&gt;Invio e ritiro pacchi - 10&lt;br&gt;Invio e ritiro lettere e raccomandate - 8&lt;br&gt;Prelievi e versamenti Bancoposta - 6&lt;br&gt;Pagamento bollettini postali - 8&lt;br&gt;Acquisto prodotti finanziari - 20&lt;br&gt;Acquisto orologi e braccialetti - 20 &lt;br&gt;&lt;/div&gt;" style="rounded=1;whiteSpace=wrap;html=1;" vertex="1" parent="1">
          <mxGeometry x="350" y="-20" width="210" height="200" as="geometry" />
        </mxCell>
        <mxCell id="aBqmL__dgE8RmT_emZI3-29" value="" style="sketch=0;html=1;aspect=fixed;strokeColor=none;shadow=0;fillColor=#3B8DF1;verticalAlign=top;labelPosition=center;verticalLabelPosition=bottom;shape=mxgraph.gcp2.arrow_cycle" vertex="1" parent="1">
          <mxGeometry x="370" y="415" width="36.84" height="35" as="geometry" />
        </mxCell>
        <mxCell id="aBqmL__dgE8RmT_emZI3-34" style="edgeStyle=orthogonalEdgeStyle;rounded=0;orthogonalLoop=1;jettySize=auto;html=1;" edge="1" parent="1" source="aBqmL__dgE8RmT_emZI3-31">
          <mxGeometry relative="1" as="geometry">
            <mxPoint x="240" y="450" as="targetPoint" />
          </mxGeometry>
        </mxCell>
        <mxCell id="aBqmL__dgE8RmT_emZI3-31" value="&lt;div align=&quot;left&quot;&gt;&lt;font style=&quot;font-size: 15px;&quot;&gt;&lt;strike&gt;• il numero di utenti serviti totali nella simulazione&lt;/strike&gt;&lt;br&gt;&lt;strike&gt;• il numero di utenti serviti in media al giorno&lt;/strike&gt;&lt;br&gt;• il numero di servizi erogati totali nella simulazione&lt;br&gt;• il numero di servizi non erogati totali nella simulazione&lt;br&gt;• il numero di servizi erogati in media al giorno&lt;br&gt;• il numero di servizi non erogati in media al giorno&lt;br&gt;• il tempo medio di attesa degli utenti nella simulazione&lt;br&gt;• il tempo medio di attesa degli utenti nella giornata&lt;br&gt;• il tempo medio di erogazione dei servizi nella simulazione&lt;br&gt;• il tempo medio di erogazione dei servizi nella giornata&lt;br&gt;• le statistiche precedenti suddivise per tipologia di servizio&lt;br&gt;• il numero di operatori attivi durante la giornata;&lt;br&gt;• il numero di operatori attivi durante la simulazione;&lt;br&gt;• il numero medio di pause effettuate nella giornata e il totale di pause effettuate durante la simulazione;&lt;br&gt;• il rapporto fra operatori disponibili e sportelli esistenti, per ogni sportello per ogni giornata.&lt;/font&gt;&lt;/div&gt;" style="rounded=1;whiteSpace=wrap;html=1;align=left;" vertex="1" parent="1">
          <mxGeometry x="880" y="800" width="610" height="370" as="geometry" />
        </mxCell>
        <mxCell id="aBqmL__dgE8RmT_emZI3-37" style="edgeStyle=orthogonalEdgeStyle;rounded=0;orthogonalLoop=1;jettySize=auto;html=1;" edge="1" parent="1" source="aBqmL__dgE8RmT_emZI3-36">
          <mxGeometry relative="1" as="geometry">
            <mxPoint x="1000" y="790" as="targetPoint" />
          </mxGeometry>
        </mxCell>
        <mxCell id="aBqmL__dgE8RmT_emZI3-36" value="&lt;div align=&quot;left&quot;&gt;1 - Scrive se servito&lt;br&gt;2 - Tempo attesa per servizio&lt;/div&gt;&lt;div align=&quot;left&quot;&gt;&lt;br&gt;&lt;/div&gt;" style="rounded=0;whiteSpace=wrap;html=1;align=left;" vertex="1" parent="1">
          <mxGeometry x="940" y="640" width="120" height="60" as="geometry" />
        </mxCell>
        <mxCell id="aBqmL__dgE8RmT_emZI3-40" value="1 - Quantita di servizi&lt;div&gt;&lt;br/&gt;&lt;/div&gt;" style="rounded=0;whiteSpace=wrap;html=1;" vertex="1" parent="1">
          <mxGeometry x="1180" y="360" width="120" height="60" as="geometry" />
        </mxCell>
        <mxCell id="aBqmL__dgE8RmT_emZI3-42" value="&lt;div&gt;&lt;b&gt;SIM_DURATION&lt;/b&gt;/giorni&lt;br&gt;&lt;/div&gt;&lt;div&gt;&lt;b&gt;NANO_SECONDS&lt;/b&gt; 1 ns = 1 min&lt;br&gt;&lt;/div&gt;" style="text;html=1;align=center;verticalAlign=middle;resizable=0;points=[];autosize=1;strokeColor=none;fillColor=none;" vertex="1" parent="1">
          <mxGeometry x="310" y="330" width="190" height="40" as="geometry" />
        </mxCell>
        <mxCell id="aBqmL__dgE8RmT_emZI3-44" value="" style="endArrow=none;html=1;rounded=0;" edge="1" parent="1">
          <mxGeometry width="50" height="50" relative="1" as="geometry">
            <mxPoint x="500" y="550" as="sourcePoint" />
            <mxPoint x="500" y="240" as="targetPoint" />
          </mxGeometry>
        </mxCell>
        <mxCell id="aBqmL__dgE8RmT_emZI3-45" value="" style="endArrow=classic;html=1;rounded=0;entryX=0;entryY=0.5;entryDx=0;entryDy=0;" edge="1" parent="1" target="aBqmL__dgE8RmT_emZI3-2">
          <mxGeometry width="50" height="50" relative="1" as="geometry">
            <mxPoint x="500" y="239.41" as="sourcePoint" />
            <mxPoint x="670" y="239" as="targetPoint" />
          </mxGeometry>
        </mxCell>
        <mxCell id="aBqmL__dgE8RmT_emZI3-46" value="&lt;b&gt;NOF_WORKERS_SEAT&lt;/b&gt;" style="edgeLabel;html=1;align=center;verticalAlign=middle;resizable=0;points=[];" vertex="1" connectable="0" parent="aBqmL__dgE8RmT_emZI3-45">
          <mxGeometry x="0.3314" y="-6" relative="1" as="geometry">
            <mxPoint x="-27" y="-5" as="offset" />
          </mxGeometry>
        </mxCell>
        <mxCell id="aBqmL__dgE8RmT_emZI3-47" value="" style="endArrow=classic;html=1;rounded=0;" edge="1" parent="1">
          <mxGeometry width="50" height="50" relative="1" as="geometry">
            <mxPoint x="500" y="400" as="sourcePoint" />
            <mxPoint x="680" y="400" as="targetPoint" />
          </mxGeometry>
        </mxCell>
        <mxCell id="aBqmL__dgE8RmT_emZI3-48" value="NOF_WORKER" style="edgeLabel;html=1;align=center;verticalAlign=middle;resizable=0;points=[];" vertex="1" connectable="0" parent="aBqmL__dgE8RmT_emZI3-47">
          <mxGeometry x="-0.7124" y="4" relative="1" as="geometry">
            <mxPoint x="42" y="-5" as="offset" />
          </mxGeometry>
        </mxCell>
        <mxCell id="aBqmL__dgE8RmT_emZI3-51" value="" style="endArrow=classic;html=1;rounded=0;" edge="1" parent="1">
          <mxGeometry width="50" height="50" relative="1" as="geometry">
            <mxPoint x="500" y="545" as="sourcePoint" />
            <mxPoint x="680" y="545" as="targetPoint" />
          </mxGeometry>
        </mxCell>
        <mxCell id="aBqmL__dgE8RmT_emZI3-52" value="NOF_USERS" style="edgeLabel;html=1;align=center;verticalAlign=middle;resizable=0;points=[];" vertex="1" connectable="0" parent="aBqmL__dgE8RmT_emZI3-51">
          <mxGeometry x="-0.7124" y="4" relative="1" as="geometry">
            <mxPoint x="42" y="-5" as="offset" />
          </mxGeometry>
        </mxCell>
        <mxCell id="aBqmL__dgE8RmT_emZI3-53" value="&lt;div align=&quot;center&quot;&gt;Creazione &lt;b&gt;NOF_WORKERS_SEAT&lt;/b&gt;&lt;br&gt;Ad ogni iterazione, &lt;i&gt;execve&lt;/i&gt;(./sportello, argv[&lt;b&gt;Servizio&lt;/b&gt;]&lt;/div&gt;" style="text;html=1;whiteSpace=wrap;overflow=hidden;rounded=0;align=center;" vertex="1" parent="1">
          <mxGeometry x="770" y="140" width="180" height="70" as="geometry" />
        </mxCell>
      </root>
    </mxGraphModel>
  </diagram>
</mxfile>
